<svg width="85" height="45" viewBox="0 0 85 45" fill="none" xmlns="http://www.w3.org/2000/svg">
<g clip-path="url(#clip0)">
<path d="M69.4137 25.5305V23.6939H85V27.3672H69.4137V25.5305ZM69.4137 19.6531V17.8164H85V21.4898H69.4137V19.6531ZM69.4137 13.7757V11.939H85V15.6124H69.4137V13.7757V13.7757ZM69.4137 7.71463V5.87794H85V9.73499H69.4137V7.71463V7.71463ZM69.4137 2.02088V0.000518799H85V4.04124H69.4137V2.02088V2.02088Z" fill="#B1E3FA"/>
<path d="M34.6162 25.5305V23.6938H50.2026V27.3672H34.6162V25.5305ZM34.6162 19.6531V17.8164H50.2026V21.4898H34.6162V19.6531ZM34.6162 13.7757V11.939H50.2026V15.6124H34.6162V13.7757V13.7757ZM34.6162 7.71462V5.87793H50.2026V9.73498H34.6162V7.71462V7.71462Z" fill="#F7BACF"/>
<path d="M52.0149 25.5305V23.6939H67.6013V27.3672H52.0149V25.5305V25.5305ZM52.0149 19.6531V17.8164H67.6013V21.4898H52.0149V19.6531V19.6531Z" fill="#E7EE9F"/>
<path d="M17.3987 43.1628V41.3261H32.6226V44.9995H17.3987V43.1628ZM17.3987 37.1017V35.265H32.6226V38.9384H17.3987V37.1017ZM17.3987 31.2243V29.3876H32.6226V33.061H17.3987V31.2243Z" fill="#FEEA3A"/>
<path d="M0 25.5305V23.6939H15.2239V27.3672H0V25.5305ZM0 19.6531V17.8164H15.2239V21.4898H0V19.6531Z" fill="#FE9D7F"/>
<path d="M69.5949 43.1628V41.3261H84.8187V44.9995H69.5949V43.1628ZM69.5949 37.1017V35.265H84.8187V38.9384H69.5949V37.1017ZM69.5949 31.2243V29.3876H84.8187V33.061H69.5949V31.2243Z" fill="#4EC2F6"/>
<path d="M52.1962 43.1628V41.3261H67.4201V44.9995H52.1962V43.1628V43.1628ZM52.1962 37.1017V35.265H67.4201V38.9384H52.1962V37.1017V37.1017ZM52.1962 31.2243V29.3876H67.4201V33.061H52.1962V31.2243V31.2243Z" fill="#CCDB38"/>
<path d="M34.7974 43.1628V41.3261H50.0213V44.9995H34.7974V43.1628V43.1628ZM34.7974 37.1017V35.265H50.0213V38.9384H34.7974V37.1017V37.1017ZM34.7974 31.2243V29.3876H50.0213V33.061H34.7974V31.2243V31.2243Z" fill="#FE3F80"/>
<path d="M0 43.1628V41.3261H15.2239V44.9995H0V43.1628ZM0 37.1017V35.265H15.2239V38.9384H0V37.1017ZM0 31.2243V29.3876H15.2239V33.061H0V31.2243Z" fill="#FE3D02"/>
</g>
<defs>
<clipPath id="clip0">
<rect width="85" height="45" fill="white"/>
</clipPath>
</defs>
</svg>
