<svg width="518" height="58" viewBox="0 0 518 58" fill="none" xmlns="http://www.w3.org/2000/svg">
<g clip-path="url(#clip0)" filter="url(#filter0_d)">
<path d="M498.414 30.5305V28.6938H514V32.3672H498.414V30.5305ZM498.414 24.6531V22.8164H514V26.4898H498.414V24.6531ZM498.414 18.7757V16.939H514V20.6124H498.414V18.7757V18.7757ZM498.414 12.7146V10.8779H514V14.735H498.414V12.7146V12.7146ZM498.414 7.02085V5.00049H514V9.04121H498.414V7.02085V7.02085Z" fill="#B1E3FA"/>
<path d="M463.616 30.5305V28.6938H479.203V32.3672H463.616V30.5305ZM463.616 24.6531V22.8164H479.203V26.4898H463.616V24.6531ZM463.616 18.7757V16.939H479.203V20.6124H463.616V18.7757V18.7757ZM463.616 12.7146V10.8779H479.203V14.735H463.616V12.7146V12.7146Z" fill="#F7BACF"/>
<path d="M481.015 30.5305V28.6938H496.601V32.3672H481.015V30.5305V30.5305ZM481.015 24.6531V22.8164H496.601V26.4898H481.015V24.6531V24.6531Z" fill="#E7EE9F"/>
<path d="M446.399 48.1628V46.3261H461.623V49.9995H446.399V48.1628ZM446.399 42.1017V40.265H461.623V43.9384H446.399V42.1017ZM446.399 36.2243V34.3876H461.623V38.061H446.399V36.2243Z" fill="#FEEA3A"/>
<path d="M429 30.5305V28.6938H444.224V32.3672H429V30.5305ZM429 24.6531V22.8164H444.224V26.4898H429V24.6531Z" fill="#FE9D7F"/>
<path d="M498.595 48.1628V46.3261H513.819V49.9995H498.595V48.1628ZM498.595 42.1017V40.265H513.819V43.9384H498.595V42.1017ZM498.595 36.2243V34.3876H513.819V38.061H498.595V36.2243Z" fill="#4EC2F6"/>
<path d="M481.196 48.1628V46.3261H496.42V49.9995H481.196V48.1628V48.1628ZM481.196 42.1017V40.265H496.42V43.9384H481.196V42.1017V42.1017ZM481.196 36.2243V34.3876H496.42V38.061H481.196V36.2243V36.2243Z" fill="#CCDB38"/>
<path d="M463.797 48.1628V46.3261H479.021V49.9995H463.797V48.1628V48.1628ZM463.797 42.1017V40.265H479.021V43.9384H463.797V42.1017V42.1017ZM463.797 36.2243V34.3876H479.021V38.061H463.797V36.2243V36.2243Z" fill="#FE3F80"/>
<path d="M429 48.1628V46.3261H444.224V49.9995H429V48.1628ZM429 42.1017V40.265H444.224V43.9384H429V42.1017ZM429 36.2243V34.3876H444.224V38.061H429V36.2243Z" fill="#FE3D02"/>
</g>
<g filter="url(#filter1_d)">
<path d="M14.8553 11.352C19.8153 11.352 23.6233 12.232 26.2793 13.992C28.9353 15.72 30.2633 18.568 30.2633 22.536C30.2633 26.536 28.9193 29.432 26.2313 31.224C23.5433 32.984 19.7033 33.864 14.7113 33.864H12.3593V45H4.87125V12.216C6.50325 11.896 8.23125 11.672 10.0553 11.544C11.8793 11.416 13.4793 11.352 14.8553 11.352ZM15.3353 17.736C14.7913 17.736 14.2473 17.752 13.7032 17.784C13.1913 17.816 12.7433 17.848 12.3593 17.88V27.48H14.7113C17.3033 27.48 19.2553 27.128 20.5673 26.424C21.8793 25.72 22.5353 24.408 22.5353 22.488C22.5353 21.56 22.3593 20.792 22.0073 20.184C21.6873 19.576 21.2073 19.096 20.5673 18.744C19.9593 18.36 19.2073 18.104 18.3113 17.976C17.4153 17.816 16.4233 17.736 15.3353 17.736ZM50.4979 26.088C49.8579 25.928 49.1059 25.768 48.2419 25.608C47.3779 25.416 46.4499 25.32 45.4579 25.32C45.0099 25.32 44.4659 25.368 43.8259 25.464C43.2179 25.528 42.7539 25.608 42.4339 25.704V45H35.2819V21.096C36.5619 20.648 38.0659 20.232 39.7939 19.848C41.5539 19.432 43.5059 19.224 45.6499 19.224C46.0339 19.224 46.4979 19.256 47.0419 19.32C47.5859 19.352 48.1299 19.416 48.6739 19.512C49.2179 19.576 49.7619 19.672 50.3059 19.8C50.8499 19.896 51.3139 20.024 51.6979 20.184L50.4979 26.088ZM53.8631 32.568C53.8631 30.328 54.1991 28.376 54.8711 26.712C55.5751 25.016 56.4871 23.608 57.6071 22.488C58.7271 21.368 60.0071 20.52 61.4471 19.944C62.9191 19.368 64.4231 19.08 65.9591 19.08C69.5431 19.08 72.3751 20.184 74.4551 22.392C76.5351 24.568 77.5751 27.784 77.5751 32.04C77.5751 32.456 77.5591 32.92 77.5271 33.432C77.4951 33.912 77.4631 34.344 77.4311 34.728H61.2071C61.3671 36.2 62.0551 37.368 63.2711 38.232C64.4871 39.096 66.1191 39.528 68.1671 39.528C69.4791 39.528 70.7591 39.416 72.0071 39.192C73.2871 38.936 74.3271 38.632 75.1271 38.28L76.0871 44.088C75.7031 44.28 75.1911 44.472 74.5511 44.664C73.9111 44.856 73.1911 45.016 72.3911 45.144C71.6231 45.304 70.7911 45.432 69.8951 45.528C68.9991 45.624 68.1031 45.672 67.2071 45.672C64.9351 45.672 62.9511 45.336 61.2551 44.664C59.5911 43.992 58.1991 43.08 57.0791 41.928C55.9911 40.744 55.1751 39.352 54.6311 37.752C54.1191 36.152 53.8631 34.424 53.8631 32.568ZM70.6631 29.832C70.6311 29.224 70.5191 28.632 70.3271 28.056C70.1671 27.48 69.8951 26.968 69.5111 26.52C69.1591 26.072 68.6951 25.704 68.1191 25.416C67.5751 25.128 66.8871 24.984 66.0551 24.984C65.2551 24.984 64.5671 25.128 63.9911 25.416C63.4151 25.672 62.9351 26.024 62.5511 26.472C62.1671 26.92 61.8631 27.448 61.6391 28.056C61.4471 28.632 61.3031 29.224 61.2071 29.832H70.6631ZM96.9664 31.608C96.9664 29.304 96.6624 27.672 96.0544 26.712C95.4784 25.752 94.4704 25.272 93.0304 25.272C92.5824 25.272 92.1184 25.304 91.6384 25.368C91.1584 25.4 90.6944 25.448 90.2464 25.512V45H83.0944V20.616C83.7024 20.456 84.4064 20.296 85.2064 20.136C86.0384 19.944 86.9024 19.784 87.7984 19.656C88.7264 19.496 89.6704 19.384 90.6304 19.32C91.5904 19.224 92.5344 19.176 93.4624 19.176C95.2864 19.176 96.7584 19.416 97.8784 19.896C99.0304 20.344 99.9744 20.888 100.71 21.528C101.734 20.792 102.902 20.216 104.214 19.8C105.558 19.384 106.79 19.176 107.91 19.176C109.926 19.176 111.574 19.464 112.854 20.04C114.166 20.584 115.206 21.368 115.974 22.392C116.742 23.416 117.27 24.632 117.558 26.04C117.846 27.448 117.99 29.016 117.99 30.744V45H110.838V31.608C110.838 29.304 110.534 27.672 109.926 26.712C109.35 25.752 108.342 25.272 106.902 25.272C106.518 25.272 105.974 25.368 105.27 25.56C104.598 25.752 104.038 25.992 103.59 26.28C103.814 27.016 103.958 27.8 104.022 28.632C104.086 29.432 104.118 30.296 104.118 31.224V45H96.9664V31.608ZM146.037 44.136C144.821 44.488 143.253 44.808 141.333 45.096C139.413 45.416 137.397 45.576 135.285 45.576C133.141 45.576 131.349 45.288 129.909 44.712C128.501 44.136 127.381 43.336 126.549 42.312C125.717 41.256 125.125 40.008 124.773 38.568C124.421 37.128 124.245 35.544 124.245 33.816V19.752H131.397V32.952C131.397 35.256 131.701 36.92 132.309 37.944C132.917 38.968 134.053 39.48 135.717 39.48C136.229 39.48 136.773 39.464 137.349 39.432C137.925 39.368 138.437 39.304 138.885 39.24V19.752H146.037V44.136ZM159.999 39.864C161.311 39.864 162.239 39.736 162.783 39.48C163.327 39.224 163.599 38.728 163.599 37.992C163.599 37.416 163.247 36.92 162.543 36.504C161.839 36.056 160.767 35.56 159.327 35.016C158.207 34.6 157.183 34.168 156.255 33.72C155.359 33.272 154.591 32.744 153.951 32.136C153.311 31.496 152.815 30.744 152.463 29.88C152.111 29.016 151.935 27.976 151.935 26.76C151.935 24.392 152.815 22.52 154.575 21.144C156.335 19.768 158.751 19.08 161.823 19.08C163.359 19.08 164.831 19.224 166.239 19.512C167.647 19.768 168.767 20.056 169.599 20.376L168.351 25.944C167.519 25.656 166.607 25.4 165.615 25.176C164.655 24.952 163.567 24.84 162.351 24.84C160.111 24.84 158.991 25.464 158.991 26.712C158.991 27 159.039 27.256 159.135 27.48C159.231 27.704 159.423 27.928 159.711 28.152C159.999 28.344 160.383 28.568 160.863 28.824C161.375 29.048 162.015 29.304 162.783 29.592C164.351 30.168 165.647 30.744 166.671 31.32C167.695 31.864 168.495 32.472 169.071 33.144C169.679 33.784 170.095 34.504 170.319 35.304C170.575 36.104 170.703 37.032 170.703 38.088C170.703 40.584 169.759 42.472 167.871 43.752C166.015 45.032 163.375 45.672 159.951 45.672C157.711 45.672 155.839 45.48 154.335 45.096C152.863 44.712 151.839 44.392 151.263 44.136L152.463 38.328C153.679 38.808 154.927 39.192 156.207 39.48C157.487 39.736 158.751 39.864 159.999 39.864ZM183.2 45H176.048V19.752H183.2V45ZM183.872 12.456C183.872 13.768 183.44 14.808 182.576 15.576C181.744 16.312 180.752 16.68 179.6 16.68C178.448 16.68 177.44 16.312 176.576 15.576C175.744 14.808 175.328 13.768 175.328 12.456C175.328 11.144 175.744 10.12 176.576 9.384C177.44 8.616 178.448 8.232 179.6 8.232C180.752 8.232 181.744 8.616 182.576 9.384C183.44 10.12 183.872 11.144 183.872 12.456ZM188.723 32.376C188.723 30.552 189.011 28.84 189.587 27.24C190.195 25.608 191.059 24.2 192.179 23.016C193.299 21.8 194.659 20.84 196.259 20.136C197.859 19.432 199.683 19.08 201.731 19.08C203.075 19.08 204.307 19.208 205.427 19.464C206.547 19.688 207.635 20.024 208.691 20.472L207.203 26.184C206.531 25.928 205.795 25.704 204.995 25.512C204.195 25.32 203.299 25.224 202.307 25.224C200.195 25.224 198.611 25.88 197.555 27.192C196.531 28.504 196.019 30.232 196.019 32.376C196.019 34.648 196.499 36.408 197.459 37.656C198.451 38.904 200.163 39.528 202.595 39.528C203.459 39.528 204.387 39.448 205.379 39.288C206.371 39.128 207.283 38.872 208.115 38.52L209.123 44.376C208.291 44.728 207.251 45.032 206.003 45.288C204.755 45.544 203.379 45.672 201.875 45.672C199.571 45.672 197.587 45.336 195.923 44.664C194.259 43.96 192.883 43.016 191.795 41.832C190.739 40.648 189.955 39.256 189.443 37.656C188.963 36.024 188.723 34.264 188.723 32.376ZM223.294 27.432H237.214V33.912H223.294V27.432ZM261.266 38.904C261.618 38.936 262.018 38.968 262.466 39C262.946 39 263.506 39 264.146 39C267.89 39 270.658 38.056 272.45 36.168C274.274 34.28 275.186 31.672 275.186 28.344C275.186 24.856 274.322 22.216 272.594 20.424C270.866 18.632 268.13 17.736 264.386 17.736C263.874 17.736 263.346 17.752 262.802 17.784C262.258 17.784 261.746 17.816 261.266 17.88V38.904ZM282.914 28.344C282.914 31.224 282.466 33.736 281.57 35.88C280.674 38.024 279.394 39.8 277.73 41.208C276.098 42.616 274.098 43.672 271.73 44.376C269.362 45.08 266.706 45.432 263.762 45.432C262.418 45.432 260.85 45.368 259.058 45.24C257.266 45.144 255.506 44.92 253.778 44.568V12.168C255.506 11.848 257.298 11.64 259.154 11.544C261.042 11.416 262.658 11.352 264.002 11.352C266.85 11.352 269.426 11.672 271.73 12.312C274.066 12.952 276.066 13.96 277.73 15.336C279.394 16.712 280.674 18.472 281.57 20.616C282.466 22.76 282.914 25.336 282.914 28.344ZM287.488 32.568C287.488 30.328 287.824 28.376 288.496 26.712C289.2 25.016 290.112 23.608 291.232 22.488C292.352 21.368 293.632 20.52 295.072 19.944C296.544 19.368 298.048 19.08 299.584 19.08C303.168 19.08 306 20.184 308.08 22.392C310.16 24.568 311.2 27.784 311.2 32.04C311.2 32.456 311.184 32.92 311.152 33.432C311.12 33.912 311.088 34.344 311.056 34.728H294.832C294.992 36.2 295.68 37.368 296.896 38.232C298.112 39.096 299.744 39.528 301.792 39.528C303.104 39.528 304.384 39.416 305.632 39.192C306.912 38.936 307.952 38.632 308.752 38.28L309.712 44.088C309.328 44.28 308.816 44.472 308.176 44.664C307.536 44.856 306.816 45.016 306.016 45.144C305.248 45.304 304.416 45.432 303.52 45.528C302.624 45.624 301.728 45.672 300.832 45.672C298.56 45.672 296.576 45.336 294.88 44.664C293.216 43.992 291.824 43.08 290.704 41.928C289.616 40.744 288.8 39.352 288.256 37.752C287.744 36.152 287.488 34.424 287.488 32.568ZM304.288 29.832C304.256 29.224 304.144 28.632 303.952 28.056C303.792 27.48 303.52 26.968 303.136 26.52C302.784 26.072 302.32 25.704 301.744 25.416C301.2 25.128 300.512 24.984 299.68 24.984C298.88 24.984 298.192 25.128 297.616 25.416C297.04 25.672 296.56 26.024 296.176 26.472C295.792 26.92 295.488 27.448 295.264 28.056C295.072 28.632 294.928 29.224 294.832 29.832H304.288ZM315.519 32.568C315.519 30.328 315.855 28.376 316.527 26.712C317.231 25.016 318.143 23.608 319.263 22.488C320.383 21.368 321.663 20.52 323.103 19.944C324.575 19.368 326.079 19.08 327.615 19.08C331.199 19.08 334.031 20.184 336.111 22.392C338.191 24.568 339.231 27.784 339.231 32.04C339.231 32.456 339.215 32.92 339.183 33.432C339.151 33.912 339.119 34.344 339.087 34.728H322.863C323.023 36.2 323.711 37.368 324.927 38.232C326.143 39.096 327.775 39.528 329.823 39.528C331.135 39.528 332.415 39.416 333.663 39.192C334.943 38.936 335.983 38.632 336.783 38.28L337.743 44.088C337.359 44.28 336.847 44.472 336.207 44.664C335.567 44.856 334.847 45.016 334.047 45.144C333.279 45.304 332.447 45.432 331.551 45.528C330.655 45.624 329.759 45.672 328.863 45.672C326.591 45.672 324.607 45.336 322.911 44.664C321.247 43.992 319.855 43.08 318.735 41.928C317.647 40.744 316.831 39.352 316.287 37.752C315.775 36.152 315.519 34.424 315.519 32.568ZM332.319 29.832C332.287 29.224 332.175 28.632 331.983 28.056C331.823 27.48 331.551 26.968 331.167 26.52C330.815 26.072 330.351 25.704 329.775 25.416C329.231 25.128 328.543 24.984 327.711 24.984C326.911 24.984 326.223 25.128 325.647 25.416C325.071 25.672 324.591 26.024 324.207 26.472C323.823 26.92 323.519 27.448 323.295 28.056C323.103 28.632 322.959 29.224 322.863 29.832H332.319ZM363.711 24.552C363.135 25.192 362.351 26.056 361.359 27.144C360.399 28.232 359.359 29.432 358.239 30.744C357.119 32.056 355.983 33.432 354.831 34.872C353.711 36.312 352.687 37.704 351.759 39.048H363.951V45H343.071V40.776C343.743 39.624 344.543 38.392 345.471 37.08C346.431 35.736 347.423 34.392 348.447 33.048C349.503 31.704 350.543 30.408 351.567 29.16C352.591 27.88 353.535 26.728 354.399 25.704H343.647V19.752H363.711V24.552ZM366.848 32.568C366.848 30.328 367.184 28.376 367.855 26.712C368.56 25.016 369.472 23.608 370.592 22.488C371.712 21.368 372.992 20.52 374.432 19.944C375.904 19.368 377.408 19.08 378.944 19.08C382.528 19.08 385.36 20.184 387.44 22.392C389.52 24.568 390.56 27.784 390.56 32.04C390.56 32.456 390.544 32.92 390.512 33.432C390.48 33.912 390.448 34.344 390.416 34.728H374.192C374.352 36.2 375.04 37.368 376.256 38.232C377.472 39.096 379.104 39.528 381.152 39.528C382.464 39.528 383.744 39.416 384.992 39.192C386.272 38.936 387.312 38.632 388.112 38.28L389.072 44.088C388.688 44.28 388.176 44.472 387.536 44.664C386.896 44.856 386.176 45.016 385.376 45.144C384.608 45.304 383.776 45.432 382.88 45.528C381.984 45.624 381.088 45.672 380.192 45.672C377.92 45.672 375.936 45.336 374.24 44.664C372.576 43.992 371.184 43.08 370.064 41.928C368.976 40.744 368.16 39.352 367.616 37.752C367.104 36.152 366.848 34.424 366.848 32.568ZM383.648 29.832C383.616 29.224 383.504 28.632 383.312 28.056C383.152 27.48 382.88 26.968 382.496 26.52C382.144 26.072 381.68 25.704 381.104 25.416C380.56 25.128 379.872 24.984 379.04 24.984C378.24 24.984 377.552 25.128 376.976 25.416C376.4 25.672 375.92 26.024 375.536 26.472C375.152 26.92 374.848 27.448 374.624 28.056C374.432 28.632 374.288 29.224 374.192 29.832H383.648ZM411.295 26.088C410.655 25.928 409.903 25.768 409.039 25.608C408.175 25.416 407.247 25.32 406.255 25.32C405.807 25.32 405.263 25.368 404.623 25.464C404.015 25.528 403.551 25.608 403.231 25.704V45H396.079V21.096C397.359 20.648 398.863 20.232 400.591 19.848C402.351 19.432 404.303 19.224 406.447 19.224C406.831 19.224 407.295 19.256 407.839 19.32C408.383 19.352 408.927 19.416 409.471 19.512C410.015 19.576 410.559 19.672 411.103 19.8C411.647 19.896 412.111 20.024 412.495 20.184L411.295 26.088Z" fill="#EFEDF9"/>
</g>
<defs>
<filter id="filter0_d" x="425" y="5" width="93" height="53" filterUnits="userSpaceOnUse" color-interpolation-filters="sRGB">
<feFlood flood-opacity="0" result="BackgroundImageFix"/>
<feColorMatrix in="SourceAlpha" type="matrix" values="0 0 0 0 0 0 0 0 0 0 0 0 0 0 0 0 0 0 127 0" result="hardAlpha"/>
<feOffset dy="4"/>
<feGaussianBlur stdDeviation="2"/>
<feComposite in2="hardAlpha" operator="out"/>
<feColorMatrix type="matrix" values="0 0 0 0 0 0 0 0 0 0 0 0 0 0 0 0 0 0 0.25 0"/>
<feBlend mode="normal" in2="BackgroundImageFix" result="effect1_dropShadow"/>
<feBlend mode="normal" in="SourceGraphic" in2="effect1_dropShadow" result="shape"/>
</filter>
<filter id="filter1_d" x="0.871246" y="8.23206" width="415.624" height="45.44" filterUnits="userSpaceOnUse" color-interpolation-filters="sRGB">
<feFlood flood-opacity="0" result="BackgroundImageFix"/>
<feColorMatrix in="SourceAlpha" type="matrix" values="0 0 0 0 0 0 0 0 0 0 0 0 0 0 0 0 0 0 127 0" result="hardAlpha"/>
<feOffset dy="4"/>
<feGaussianBlur stdDeviation="2"/>
<feComposite in2="hardAlpha" operator="out"/>
<feColorMatrix type="matrix" values="0 0 0 0 0 0 0 0 0 0 0 0 0 0 0 0 0 0 0.25 0"/>
<feBlend mode="normal" in2="BackgroundImageFix" result="effect1_dropShadow"/>
<feBlend mode="normal" in="SourceGraphic" in2="effect1_dropShadow" result="shape"/>
</filter>
<clipPath id="clip0">
<rect width="85" height="45" fill="white" transform="translate(429 5)"/>
</clipPath>
</defs>
</svg>
