<svg width="50" height="47" viewBox="0 0 50 47" fill="none" xmlns="http://www.w3.org/2000/svg">
<path d="M36.25 0.5C31.9 0.5 27.725 2.525 25 5.725C22.275 2.525 18.1 0.5 13.75 0.5C6.05 0.5 0 6.55 0 14.25C0 23.7 8.5 31.4 21.375 43.1L25 46.375L28.625 43.075C41.5 31.4 50 23.7 50 14.25C50 6.55 43.95 0.5 36.25 0.5ZM25.25 39.375L25 39.625L24.75 39.375C12.85 28.6 5 21.475 5 14.25C5 9.25 8.75 5.5 13.75 5.5C17.6 5.5 21.35 7.975 22.675 11.4H27.35C28.65 7.975 32.4 5.5 36.25 5.5C41.25 5.5 45 9.25 45 14.25C45 21.475 37.15 28.6 25.25 39.375Z" fill="#E0349B"/>
</svg>
