<svg width="37" height="41" viewBox="0 0 37 41" fill="none" xmlns="http://www.w3.org/2000/svg">
<path d="M7.40625 0.53125C9.1716 0.53125 10.8646 1.23253 12.1129 2.48082C13.3612 3.72911 14.0625 5.42215 14.0625 7.1875V33.8125C14.0625 35.5778 13.3612 37.2709 12.1129 38.5192C10.8646 39.7675 9.1716 40.4688 7.40625 40.4688C5.6409 40.4688 3.94786 39.7675 2.69957 38.5192C1.45128 37.2709 0.75 35.5778 0.75 33.8125V7.1875C0.75 5.42215 1.45128 3.72911 2.69957 2.48082C3.94786 1.23253 5.6409 0.53125 7.40625 0.53125ZM29.5938 0.53125C31.3591 0.53125 33.0521 1.23253 34.3004 2.48082C35.5487 3.72911 36.25 5.42215 36.25 7.1875V33.8125C36.25 35.5778 35.5487 37.2709 34.3004 38.5192C33.0521 39.7675 31.3591 40.4688 29.5938 40.4688C27.8284 40.4688 26.1354 39.7675 24.8871 38.5192C23.6388 37.2709 22.9375 35.5778 22.9375 33.8125V7.1875C22.9375 5.42215 23.6388 3.72911 24.8871 2.48082C26.1354 1.23253 27.8284 0.53125 29.5938 0.53125Z" fill="#8373E8"/>
</svg>
